<?xml version="1.0" encoding="UTF-8"?>
<svg width="48px" height="57px" viewBox="0 0 48 57" version="1.1" xmlns="http://www.w3.org/2000/svg" xmlns:xlink="http://www.w3.org/1999/xlink">
    <!-- Generator: sketchtool 42 (36781) - http://www.bohemiancoding.com/sketch -->
    <title>FF5A9A67-32E9-421A-807A-8FC724F70C4B</title>
    <desc>Created with sketchtool.</desc>
    <defs>
        <polygon id="path-1" points="23.7496577 56.0344828 47.4993154 56.0344828 47.4993154 0 0 0 0 28.0172414 0 56.0344828"></polygon>
    </defs>
    <g id="Page-1" stroke="none" stroke-width="1" fill="none" fill-rule="evenodd" opacity="0.5">
        <g id="Company-Dashboard-(Empty)" transform="translate(-696.000000, -656.000000)">
            <g id="Group" transform="translate(248.000000, 549.000000)">
                <g id="Group-4">
                    <g id="Group-2" transform="translate(314.000000, 107.000000)">
                        <g id="search" transform="translate(134.248148, 0.000000)">
                            <g id="Group-3">
                                <mask id="mask-2" fill="white">
                                    <use xlink:href="#path-1"></use>
                                </mask>
                                <g id="Clip-2"></g>
                                <path d="M38.2790988,46.8346494 L43.6832211,46.8395744 L38.2841454,52.2254512 L38.2790988,46.8346494 Z M16.2990364,23.7985671 C16.2990364,17.7360082 21.2432613,12.8037699 27.3205539,12.8037699 C33.3978464,12.8037699 38.3420714,17.7360082 38.3420714,23.7985671 C38.3420714,29.8611261 33.3978464,34.7933644 27.3205539,34.7933644 C21.2432613,34.7933644 16.2990364,29.8611261 16.2990364,23.7985671 Z M9.04205024,47.3433375 L17.7184426,38.6879799 C18.1553012,38.2521804 18.1553012,37.5452923 17.7184426,37.1094929 L16.6949737,36.0885052 L18.8347248,33.9539416 C21.1358569,35.8707149 24.0953486,37.0258789 27.3205539,37.0258789 C34.6318456,37.0258789 40.5800115,31.0921336 40.5800115,23.7985671 C40.5800115,16.5051101 34.6318456,10.5713648 27.3205539,10.5713648 C20.0092621,10.5713648 14.061206,16.5051101 14.061206,23.7985671 C14.061206,27.0727539 15.2604277,30.0724593 17.2429668,32.3846478 L15.1125409,34.5100182 L14.1579687,33.5577603 C13.947987,33.3483971 13.6635133,33.2307466 13.3667523,33.2307466 C13.0699913,33.2307466 12.7854079,33.3483971 12.5755359,33.5577603 L9.04205024,37.0826795 L9.04205024,2.23240504 L45.2634598,2.23240504 L45.2634598,44.6084826 L37.1601836,44.60115 L37.1591963,44.60115 C36.8624352,44.60115 36.5778519,44.7188005 36.3679798,44.9280543 C36.1578884,45.1375269 36.0398422,45.4219676 36.0401714,45.7183375 L36.0477412,53.8020777 L9.04205024,53.8020777 L9.04205024,47.3433375 Z M4.62387667,48.5934974 C4.07840689,49.1376448 3.19108598,49.1375354 2.64583562,48.5934974 C2.10058525,48.0494595 2.10058525,47.1642898 2.64583562,46.6203613 L13.3667523,35.9254361 L15.3447934,37.8987911 L4.62387667,48.5934974 Z M46.3824846,0 L7.92313506,0 C7.30525779,0 6.80421988,0.499713766 6.80421988,1.11620252 L6.80421988,39.3149751 L1.06340277,45.0418743 C-0.35446759,46.4563072 -0.35446759,48.7577704 1.06340277,50.1722033 C1.77233795,50.8794198 2.7036519,51.233028 3.63474644,51.233028 C4.56595068,51.233028 5.49737434,50.8794198 6.20619981,50.1722033 L6.80411017,49.5757425 L6.80411017,54.9182802 C6.80411017,55.534769 7.30514808,56.0344828 7.92302535,56.0344828 L37.1670953,56.0344828 C37.4638563,56.0344828 37.7484397,55.9168322 37.9583117,55.7075785 L47.1734817,46.51464 C47.383244,46.3053862 47.5011804,46.0214928 47.5011804,45.7253418 L47.5011804,1.11620252 C47.5013998,0.499713766 47.0003619,0 46.3824846,0 L46.3824846,0 Z" id="Fill-1" fill="#A9A9A9" mask="url(#mask-2)"></path>
                            </g>
                            <path d="M21.1105143,24.9705853 L33.6426057,24.9705853 C34.260483,24.9705853 34.7615209,24.4708715 34.7615209,23.8543827 C34.7615209,23.237894 34.260483,22.7381802 33.6426057,22.7381802 L21.1105143,22.7381802 C20.492637,22.7381802 19.9914894,23.237894 19.9914894,23.8543827 C19.9914894,24.4708715 20.492637,24.9705853 21.1105143,24.9705853" id="Fill-4" fill="#AAAAAA"></path>
                            <path d="M34.7615209,28.2076711 C34.7615209,27.5911823 34.260483,27.0914685 33.6426057,27.0914685 L21.1105143,27.0914685 C20.492637,27.0914685 19.9914894,27.5911823 19.9914894,28.2076711 C19.9914894,28.8241598 20.492637,29.3238736 21.1105143,29.3238736 L33.6426057,29.3238736 C34.2605927,29.3238736 34.7615209,28.8241598 34.7615209,28.2076711" id="Fill-5" fill="#AAAAAA"></path>
                            <path d="M21.1105143,20.5056657 L26.1456875,20.5056657 C26.7635647,20.5056657 27.2646026,20.005952 27.2646026,19.3894632 C27.2646026,18.7729745 26.7635647,18.2732607 26.1456875,18.2732607 L21.1105143,18.2732607 C20.492637,18.2732607 19.9914894,18.7729745 19.9914894,19.3894632 C19.9914894,20.005952 20.492637,20.5056657 21.1105143,20.5056657" id="Fill-6" fill="#AAAAAA"></path>
                            <path d="M29.5025427,20.5056657 L30.1738479,20.5056657 C30.7917252,20.5056657 31.2927631,20.005952 31.2927631,19.3894632 C31.2927631,18.7729745 30.7917252,18.2732607 30.1738479,18.2732607 L29.5025427,18.2732607 C28.8846654,18.2732607 28.3835178,18.7729745 28.3835178,19.3894632 C28.3835178,20.005952 28.8846654,20.5056657 29.5025427,20.5056657" id="Fill-7" fill="#AAAAAA"></path>
                        </g>
                    </g>
                </g>
            </g>
        </g>
    </g>
</svg>