<svg xmlns="http://www.w3.org/2000/svg" width="40" height="40" xmlns:xlink="http://www.w3.org/1999/xlink"><defs><path id="a" d="M.006.05V40H39.95V.05H.007z"/></defs><g fill="none" fill-rule="evenodd" opacity=".146"><g transform="matrix(.55603 0 0 .55603 8.87 8.89)"><mask id="b" fill="#fff"><use width="100%" height="100%" xlink:href="#a"/></mask><path fill="#000" d="M0 35.788A4.217 4.217 0 0 0 4.212 40H35.74a4.217 4.217 0 0 0 4.212-4.212V4.26A4.217 4.217 0 0 0 35.74.05H4.21A4.217 4.217 0 0 0 0 4.26zM35.74 38H4.21A2.22 2.22 0 0 1 2 35.788v-5.265l7.576-7.576 6.473 6.473a.995.995 0 0 0 1.41 0l11.69-11.69 8.8 8.8v9.258A2.22 2.22 0 0 1 35.74 38zM4.21 2.05H35.74a2.22 2.22 0 0 1 2.21 2.21v19.437l-8.098-8.09a.995.995 0 0 0-1.412 0l-11.69 11.69-6.474-6.473a.995.995 0 0 0-1.412 0L2 27.69V4.26c0-1.216.996-2.212 2.212-2.212z" mask="url(#b)"/></g><path fill="#000" d="M15.756 17.818a2.83 2.83 0 0 0 2.827-2.828c0-1.557-1.27-2.827-2.827-2.827a2.834 2.834 0 0 0-2.828 2.827c0 1.557 1.267 2.828 2.828 2.828zm0-4.543a1.718 1.718 0 0 1 1.716 1.715 1.72 1.72 0 0 1-1.716 1.716 1.72 1.72 0 0 1-1.716-1.716 1.717 1.717 0 0 1 1.716-1.715z"/></g></svg>