<svg width="275" height="122" viewBox="0 0 275 122" xmlns="http://www.w3.org/2000/svg"><title>4436693B-548D-4960-AA97-1F5E1A73B3FC</title><g fill="none" fill-rule="evenodd"><g opacity=".5"><path d="M160.588 105.694l9.542.009-9.533 9.51-.009-9.519zm-38.81-40.674c0-10.704 8.73-19.413 19.46-19.413 10.731 0 19.461 8.709 19.461 19.413 0 10.705-8.73 19.413-19.46 19.413s-19.46-8.708-19.46-19.413zm-12.813 41.572l15.32-15.282a1.968 1.968 0 0 0 0-2.787l-1.807-1.803 3.778-3.769a23.339 23.339 0 0 0 14.983 5.424c12.91 0 23.412-10.477 23.412-23.355s-10.503-23.355-23.412-23.355c-12.91 0-23.412 10.477-23.412 23.355a23.219 23.219 0 0 0 5.618 15.16l-3.761 3.753-1.686-1.681a1.978 1.978 0 0 0-2.794 0l-6.239 6.224V26.942h63.955v74.822l-14.308-.013h-.001c-.524 0-1.027.207-1.397.577-.371.37-.58.872-.58 1.395l.014 14.273h-47.683v-11.404zm-7.8 2.208c-.964.96-2.53.96-3.493 0a2.462 2.462 0 0 1 0-3.484l18.93-18.884 3.492 3.485-18.93 18.883zm73.73-85.8H106.99a1.973 1.973 0 0 0-1.976 1.97v67.447l-10.136 10.112a6.402 6.402 0 0 0 4.54 10.931 6.409 6.409 0 0 0 4.54-1.873l1.056-1.053v9.433c0 1.089.884 1.971 1.975 1.971h51.636c.524 0 1.026-.208 1.397-.577l16.27-16.232c.37-.37.58-.87.58-1.393V24.97c0-1.089-.885-1.971-1.976-1.971z" fill="#A9A9A9"/><path d="M130.274 67.09h22.128a1.973 1.973 0 0 0 1.975-1.971c0-1.089-.885-1.971-1.975-1.971h-22.128a1.973 1.973 0 0 0-1.976 1.97c0 1.09.885 1.972 1.976 1.972M154.377 72.805c0-1.088-.885-1.97-1.975-1.97h-22.128a1.973 1.973 0 0 0-1.976 1.97c0 1.089.885 1.971 1.976 1.971h22.128a1.973 1.973 0 0 0 1.975-1.97M130.274 59.206h8.89a1.973 1.973 0 0 0 1.976-1.97c0-1.09-.885-1.972-1.976-1.972h-8.89a1.973 1.973 0 0 0-1.976 1.971c0 1.089.885 1.971 1.976 1.971M145.092 59.206h1.185a1.973 1.973 0 0 0 1.975-1.97c0-1.09-.884-1.972-1.975-1.972h-1.185a1.973 1.973 0 0 0-1.976 1.971c0 1.089.885 1.971 1.976 1.971" fill="#AAA"/></g><path d="M60.028 82.672v-7c0-1.104 0-2.672-2-2.672s-2 1.568-2 2.672v7H49a2 2 0 1 0 0 4h7.028V93.7a2 2 0 1 0 4 0v-7.028h7a2 2 0 1 0 0-4h-7zM34.584 72.116v-5.15c0-.813 0-1.966-1.471-1.966s-1.471 1.153-1.471 1.966v5.15h-5.17a1.471 1.471 0 0 0 0 2.942h5.17v5.17a1.471 1.471 0 1 0 2.942 0v-5.17h5.15a1.471 1.471 0 0 0 0-2.942h-5.15zM230.584 30.116v-5.15c0-.813 0-1.966-1.471-1.966s-1.471 1.153-1.471 1.966v5.15h-5.17a1.471 1.471 0 0 0 0 2.942h5.17v5.17a1.471 1.471 0 1 0 2.942 0v-5.17h5.15a1.471 1.471 0 0 0 0-2.942h-5.15zM212.028 9.672v-7c0-1.104 0-2.672-2-2.672s-2 1.568-2 2.672v7H201a2 2 0 0 0 0 4h7.028V20.7a2 2 0 0 0 4 0v-7.028h7a2 2 0 1 0 0-4h-7z" fill="#D8D8D8"/><path d="M203.5 60h48.01M261.5 60h10.92M189 60h4.42M203.5 72h14.534M228 72h4.42M2.5 31h48.01M60.5 31h10.92M80 31h4.42M51.5 43h14.534M38 43h4.42" stroke="#D8D8D8" stroke-width="4" stroke-linecap="round" stroke-linejoin="round"/></g></svg>