<?xml version="1.0" standalone="no"?>
<!DOCTYPE svg PUBLIC "-//W3C//DTD SVG 20010904//EN"
 "http://www.w3.org/TR/2001/REC-SVG-20010904/DTD/svg10.dtd">
<svg version="1.0" xmlns="http://www.w3.org/2000/svg"
 width="512.000000pt" height="512.000000pt" viewBox="0 0 512.000000 512.000000"
 preserveAspectRatio="xMidYMid meet">
<metadata>
Created by potrace 1.11, written by Peter Selinger 2001-2013
</metadata>
<g transform="translate(0.000000,512.000000) scale(0.100000,-0.100000)"
fill="#000000" stroke="none">
<path d="M2369 4406 c-2 -2 -31 -7 -64 -10 -33 -4 -91 -14 -130 -22 -38 -8
-90 -19 -115 -24 -70 -14 -216 -64 -315 -108 -92 -40 -253 -133 -318 -182
-463 -351 -700 -848 -692 -1449 1 -75 5 -154 8 -176 4 -22 9 -58 12 -80 3 -23
8 -52 11 -65 3 -14 6 -34 8 -45 2 -11 9 -40 16 -65 7 -25 14 -52 15 -60 16
-72 123 -326 152 -361 7 -8 13 -18 13 -22 0 -10 82 -131 135 -197 288 -361
708 -585 1215 -649 79 -9 450 -7 510 3 128 23 256 51 322 72 43 14 79 24 80
24 2 -1 18 5 37 13 l34 14 115 -141 c63 -77 120 -147 126 -153 9 -10 28 0 86
47 89 72 55 45 323 259 l217 173 -42 52 c-24 28 -48 57 -55 64 -7 7 -29 34
-50 60 -21 26 -44 53 -50 60 -20 21 -16 31 31 86 85 100 178 257 241 406 29
68 80 227 89 276 2 16 7 40 11 54 7 34 13 67 20 120 3 25 8 61 11 80 15 100 4
377 -20 510 -12 69 -16 86 -27 130 -6 25 -12 52 -14 60 -16 72 -117 311 -168
395 -46 76 -68 109 -119 175 -267 348 -685 589 -1133 654 -23 4 -52 9 -65 12
-27 7 -455 15 -461 10z m376 -791 c111 -24 114 -25 179 -51 212 -86 389 -266
481 -489 22 -52 53 -159 60 -204 3 -20 9 -60 14 -88 9 -58 7 -208 -3 -293 -9
-70 -50 -225 -76 -286 l-20 -46 -47 59 c-26 32 -53 64 -59 70 -7 7 -58 69
-115 137 l-102 125 -46 -37 c-25 -20 -48 -40 -51 -43 -3 -3 -119 -97 -258
-208 -220 -178 -251 -206 -240 -220 7 -9 33 -41 58 -71 25 -30 52 -63 62 -75
9 -11 50 -61 92 -111 42 -51 76 -97 76 -103 0 -6 -12 -11 -27 -12 -16 0 -37
-2 -48 -5 -31 -6 -218 -6 -246 0 -13 3 -35 8 -49 10 -131 21 -275 83 -385 166
-54 41 -158 154 -197 216 -118 184 -163 344 -163 579 0 154 4 193 32 305 87
356 380 630 723 676 25 3 47 8 49 10 11 10 244 2 306 -11z"/>
</g>
</svg>
